<?xml version="1.0" encoding="UTF-8" standalone="no"?>
<svg width="172px" height="32px" viewBox="0 0 172 32" version="1.1" xmlns="http://www.w3.org/2000/svg" xmlns:xlink="http://www.w3.org/1999/xlink" xmlns:sketch="http://www.bohemiancoding.com/sketch/ns">
    <!-- Generator: Sketch 3.3.1 (12002) - http://www.bohemiancoding.com/sketch -->
    <title>EasyWeChat</title>
    <desc>Created with Sketch.</desc>
    <defs></defs>
    <g id="Page-1" stroke="none" stroke-width="1" fill="none" fill-rule="evenodd" sketch:type="MSPage">
        <path d="M4.049,2.022 L16.028,2.022 L15.599,4.431 L6.59,4.431 L5.303,11.592 L13.916,11.592 L13.52,14.001 L4.907,14.001 L3.554,21.591 L12.695,21.591 L12.266,24 L0.155,24 L4.049,2.022 Z M28.7,24 L25.928,24 L26.918,18.225 C26.6319986,18.8850033 26.291002,19.5724964 25.895,20.2875 C25.498998,21.0025036 25.0425026,21.656997 24.5255,22.251 C24.0084974,22.845003 23.4420031,23.339998 22.826,23.736 C22.2099969,24.132002 21.5390036,24.33 20.813,24.33 C20.1309966,24.33 19.5315026,24.1760015 19.0145,23.868 C18.4974974,23.5599985 18.0630018,23.1530025 17.711,22.647 C17.3589982,22.1409975 17.0950009,21.5470034 16.919,20.865 C16.7429991,20.1829966 16.655,19.4680037 16.655,18.72 C16.655,17.2899928 16.858498,15.9205065 17.2655,14.6115 C17.672502,13.3024935 18.271996,12.1420051 19.064,11.13 C19.856004,10.1179949 20.8239943,9.31500297 21.968,8.721 C23.1120057,8.12699703 24.4099927,7.83 25.862,7.83 C26.852005,7.83 27.8419951,7.94549885 28.832,8.1765 C29.822005,8.40750116 30.6579966,8.67699846 31.34,8.985 L28.7,24 Z M21.44,21.987 C22.0560031,21.987 22.666497,21.684503 23.2715,21.0795 C23.876503,20.474497 24.4539972,19.7100046 25.004,18.786 C25.5540027,17.8619954 26.0654976,16.8610054 26.5385,15.783 C27.0115024,14.7049946 27.4239982,13.6930047 27.776,12.747 L28.172,10.536 C27.4899966,10.2279985 26.6760047,10.074 25.73,10.074 C24.7839953,10.074 23.9315038,10.3214975 23.1725,10.8165 C22.4134962,11.3115025 21.7645027,11.954996 21.2255,12.747 C20.6864973,13.539004 20.2740014,14.4464949 19.988,15.4695 C19.7019986,16.4925051 19.559,17.5319947 19.559,18.588 C19.559,19.0060021 19.5864997,19.418498 19.6415,19.8255 C19.6965003,20.232502 19.7899993,20.5954984 19.922,20.9145 C20.0540007,21.2335016 20.2409988,21.491999 20.483,21.69 C20.7250012,21.888001 21.043998,21.987 21.44,21.987 L21.44,21.987 Z M43.88,19.512 C43.88,20.2600037 43.7205016,20.930997 43.4015,21.525 C43.0824984,22.119003 42.6535027,22.6249979 42.1145,23.043 C41.5754973,23.4610021 40.9375037,23.7799989 40.2005,24 C39.4634963,24.2200011 38.6880041,24.33 37.874,24.33 C37.0599959,24.33 36.2075045,24.2365009 35.3165,24.0495 C34.4254955,23.8624991 33.6610032,23.6260014 33.023,23.34 L33.65,21.096 C34.2880032,21.4040015 34.9699964,21.6459991 35.696,21.822 C36.4220036,21.9980009 37.1369965,22.086 37.841,22.086 C38.2590021,22.086 38.6604981,22.0475004 39.0455,21.9705 C39.4305019,21.8934996 39.7659986,21.7615009 40.052,21.5745 C40.3380014,21.3874991 40.5689991,21.1565014 40.745,20.8815 C40.9210009,20.6064986 41.009,20.271002 41.009,19.875 C41.009,19.2589969 40.7670024,18.7255023 40.283,18.2745 C39.7989976,17.8234977 39.1720039,17.3780022 38.402,16.938 C37.9399977,16.6519986 37.4835023,16.3495016 37.0325,16.0305 C36.5814977,15.7114984 36.1800018,15.3595019 35.828,14.9745 C35.4759982,14.5894981 35.1900011,14.1660023 34.97,13.704 C34.7499989,13.2419977 34.64,12.7470026 34.64,12.219 C34.64,10.7889928 35.140495,9.70000374 36.1415,8.952 C37.142505,8.20399626 38.4789916,7.83 40.151,7.83 C40.9870042,7.83 41.7734963,7.92899901 42.5105,8.127 C43.2475037,8.32500099 43.9349968,8.58899835 44.573,8.919 L43.979,11.097 C42.6809935,10.4149966 41.3940064,10.074 40.118,10.074 C39.3479962,10.074 38.7265024,10.2059987 38.2535,10.47 C37.7804976,10.7340013 37.544,11.2179965 37.544,11.922 C37.544,12.4720028 37.7529979,12.9394981 38.171,13.3245 C38.5890021,13.7095019 39.1499965,14.1219978 39.854,14.562 C40.2720021,14.8260013 40.7174976,15.1174984 41.1905,15.4365 C41.6635024,15.7555016 42.097998,16.112998 42.494,16.509 C42.890002,16.905002 43.2199987,17.3504975 43.484,17.8455 C43.7480013,18.3405025 43.88,18.8959969 43.88,19.512 L43.88,19.512 Z M54.572,23.109 C53.4719945,24.6930079 52.0970082,26.188993 50.447,27.597 C48.7969918,29.005007 47.070009,30.1819953 45.266,31.128 L43.979,29.049 C45.189006,28.3449965 46.393494,27.5585043 47.5925,26.6895 C48.791506,25.8204957 49.8529954,24.891005 50.777,23.901 C50.380998,21.106986 49.8365035,18.3625135 49.1435,15.6675 C48.4504965,12.9724865 47.6420046,10.4700116 46.718,8.16 L49.589,8.16 C49.9410018,9.08400462 50.2819983,10.0904946 50.612,11.1795 C50.9420017,12.2685054 51.2499986,13.3959942 51.536,14.562 C51.8220014,15.7280058 52.0804988,16.9049941 52.3115,18.093 C52.5425012,19.2810059 52.7459991,20.4359944 52.922,21.558 C55.2320115,17.3779791 56.6949969,12.9120238 57.311,8.16 L60.149,8.16 C59.950999,9.61200726 59.6650019,11.041993 59.291,12.45 C58.9169981,13.858007 58.4825025,15.2054936 57.9875,16.4925 C57.4924975,17.7795064 56.9535029,18.9839944 56.3705,20.106 C55.7874971,21.2280056 55.1880031,22.2289956 54.572,23.109 L54.572,23.109 Z M81.566,20.04 L89.354,2.022 L92.522,2.022 L82.523,24 L79.388,24 L77.177,4.992 L68.432,24 L65.297,24 L62.987,2.022 L65.891,2.022 L67.541,20.04 L75.857,2.022 L79.322,2.022 L81.566,20.04 Z M99.617,7.83 C100.915006,7.83 101.970996,8.17649654 102.785,8.8695 C103.599004,9.56250346 104.006,10.4589945 104.006,11.559 C104.006,12.6590055 103.681503,13.5609965 103.0325,14.265 C102.383497,14.9690035 101.564005,15.5299979 100.574,15.948 C99.583995,16.3660021 98.4950059,16.673999 97.307,16.872 C96.1189941,17.070001 94.9750055,17.2019997 93.875,17.268 C93.8089997,17.664002 93.776,18.0709979 93.776,18.489 C93.776,19.5230052 94.0179976,20.3809966 94.502,21.063 C94.9860024,21.7450034 95.8439938,22.086 97.076,22.086 C97.8460038,22.086 98.6159961,21.9705012 99.386,21.7395 C100.156004,21.5084988 100.870997,21.2060019 101.531,20.832 L102.092,22.878 C101.321996,23.3180022 100.491504,23.6699987 99.6005,23.934 C98.7094955,24.1980013 97.7690049,24.33 96.779,24.33 C95.8109952,24.33 94.9640036,24.1760015 94.238,23.868 C93.5119964,23.5599985 92.9125024,23.1310027 92.4395,22.581 C91.9664976,22.0309972 91.6090012,21.3875037 91.367,20.6505 C91.1249988,19.9134963 91.004,19.1160043 91.004,18.258 C91.004,16.9379934 91.201998,15.6510063 91.598,14.397 C91.994002,13.1429937 92.5659963,12.0265049 93.314,11.0475 C94.0620037,10.0684951 94.9694947,9.28750292 96.0365,8.7045 C97.1035053,8.12149708 98.2969934,7.83 99.617,7.83 L99.617,7.83 Z M99.254,10.008 C98.5939967,10.008 97.9890027,10.1564985 97.439,10.4535 C96.8889972,10.7505015 96.3995021,11.1354976 95.9705,11.6085 C95.5414979,12.0815024 95.1840014,12.620497 94.898,13.2255 C94.6119986,13.830503 94.4030007,14.429997 94.271,15.024 C95.0410038,15.0019999 95.8384959,14.9305006 96.6635,14.8095 C97.4885041,14.6884994 98.2419966,14.5015013 98.924,14.2485 C99.6060034,13.9954987 100.166998,13.665502 100.607,13.2585 C101.047002,12.851498 101.267,12.3400031 101.267,11.724 C101.267,11.2179975 101.085502,10.8055016 100.7225,10.4865 C100.359498,10.1674984 99.8700031,10.008 99.254,10.008 L99.254,10.008 Z M118.394,1.626 C119.428005,1.626 120.450995,1.73049896 121.463,1.9395 C122.475005,2.14850104 123.376996,2.43999813 124.169,2.814 L123.608,5.091 C122.815996,4.76099835 121.991004,4.50250094 121.133,4.3155 C120.274996,4.12849906 119.395005,4.035 118.493,4.035 C116.996993,4.035 115.671506,4.29899736 114.5165,4.827 C113.361494,5.35500264 112.388004,6.08099538 111.596,7.005 C110.803996,7.92900462 110.204502,9.02899362 109.7975,10.305 C109.390498,11.5810064 109.187,12.9779924 109.187,14.496 C109.187,15.6180056 109.340998,16.6354954 109.649,17.5485 C109.957002,18.4615046 110.418997,19.2479967 111.035,19.908 C111.651003,20.5680033 112.431995,21.0794982 113.378,21.4425 C114.324005,21.8055018 115.423994,21.987 116.678,21.987 C117.470004,21.987 118.267496,21.9265006 119.0705,21.8055 C119.873504,21.6844994 120.648996,21.4920013 121.397,21.228 L121.694,23.472 C120.901996,23.7800015 120.044005,24.0109992 119.12,24.165 C118.195995,24.3190008 117.239005,24.396 116.249,24.396 C114.686992,24.396 113.284506,24.1430025 112.0415,23.637 C110.798494,23.1309975 109.748004,22.4380044 108.89,21.558 C108.031996,20.6779956 107.372002,19.6440059 106.91,18.456 C106.447998,17.2679941 106.217,15.9920068 106.217,14.628 C106.217,12.823991 106.480997,11.1355079 107.009,9.5625 C107.537003,7.98949214 108.312495,6.61450588 109.3355,5.4375 C110.358505,4.26049412 111.628992,3.33100341 113.147,2.649 C114.665008,1.96699659 116.41399,1.626 118.394,1.626 L118.394,1.626 Z M124.994,24 L129.086,0.702 L131.99,0.702 L130.043,11.856 C130.351002,11.3279974 130.686498,10.8220024 131.0495,10.338 C131.412502,9.85399758 131.824998,9.42500187 132.287,9.051 C132.749002,8.67699813 133.260497,8.3800011 133.8215,8.16 C134.382503,7.9399989 135.003997,7.83 135.686,7.83 C136.368003,7.83 136.967497,7.96749862 137.4845,8.2425 C138.001503,8.51750137 138.435998,8.90249753 138.788,9.3975 C139.140002,9.89250248 139.403999,10.4754966 139.58,11.1465 C139.756001,11.8175034 139.844,12.5599959 139.844,13.374 C139.844,13.7040017 139.8275,14.0614981 139.7945,14.4465 C139.7615,14.8315019 139.712,15.2109981 139.646,15.585 L138.161,24 L135.257,24 L136.709,15.783 C136.841001,15.0349963 136.907,14.2980036 136.907,13.572 C136.907,12.6039952 136.747502,11.7955032 136.4285,11.1465 C136.109498,10.4974968 135.554004,10.173 134.762,10.173 C134.233997,10.173 133.722502,10.3159986 133.2275,10.602 C132.732498,10.8880014 132.259502,11.2729976 131.8085,11.757 C131.357498,12.2410024 130.934002,12.8019968 130.538,13.44 C130.141998,14.0780032 129.768002,14.7379966 129.416,15.42 L127.898,24 L124.994,24 Z M155.123,24 L152.351,24 L153.341,18.225 C153.054999,18.8850033 152.714002,19.5724964 152.318,20.2875 C151.921998,21.0025036 151.465503,21.656997 150.9485,22.251 C150.431497,22.845003 149.865003,23.339998 149.249,23.736 C148.632997,24.132002 147.962004,24.33 147.236,24.33 C146.553997,24.33 145.954503,24.1760015 145.4375,23.868 C144.920497,23.5599985 144.486002,23.1530025 144.134,22.647 C143.781998,22.1409975 143.518001,21.5470034 143.342,20.865 C143.165999,20.1829966 143.078,19.4680037 143.078,18.72 C143.078,17.2899928 143.281498,15.9205065 143.6885,14.6115 C144.095502,13.3024935 144.694996,12.1420051 145.487,11.13 C146.279004,10.1179949 147.246994,9.31500297 148.391,8.721 C149.535006,8.12699703 150.832993,7.83 152.285,7.83 C153.275005,7.83 154.264995,7.94549885 155.255,8.1765 C156.245005,8.40750116 157.080997,8.67699846 157.763,8.985 L155.123,24 Z M147.863,21.987 C148.479003,21.987 149.089497,21.684503 149.6945,21.0795 C150.299503,20.474497 150.876997,19.7100046 151.427,18.786 C151.977003,17.8619954 152.488498,16.8610054 152.9615,15.783 C153.434502,14.7049946 153.846998,13.6930047 154.199,12.747 L154.595,10.536 C153.912997,10.2279985 153.099005,10.074 152.153,10.074 C151.206995,10.074 150.354504,10.3214975 149.5955,10.8165 C148.836496,11.3115025 148.187503,11.954996 147.6485,12.747 C147.109497,13.539004 146.697001,14.4464949 146.411,15.4695 C146.124999,16.4925051 145.982,17.5319947 145.982,18.588 C145.982,19.0060021 146.0095,19.418498 146.0645,19.8255 C146.1195,20.232502 146.212999,20.5954984 146.345,20.9145 C146.477001,21.2335016 146.663999,21.491999 146.906,21.69 C147.148001,21.888001 147.466998,21.987 147.863,21.987 L147.863,21.987 Z M160.766,8.16 L163.67,8.16 L164.396,4.002 L167.3,4.002 L166.574,8.16 L171.689,8.16 L171.26,10.503 L166.145,10.503 L164.627,19.116 C164.561,19.512002 164.528,19.8419987 164.528,20.106 C164.528,20.7440032 164.670999,21.2224984 164.957,21.5415 C165.243001,21.8605016 165.715997,22.02 166.376,22.02 C166.926003,22.02 167.470497,21.9595006 168.0095,21.8385 C168.548503,21.7174994 169.059998,21.558001 169.544,21.36 L169.742,23.472 C169.257998,23.7140012 168.669503,23.9174992 167.9765,24.0825 C167.283497,24.2475008 166.585004,24.33 165.881,24.33 C164.494993,24.33 163.439004,23.9725036 162.713,23.2575 C161.986996,22.5424964 161.624,21.5470064 161.624,20.271 C161.624,20.0289988 161.635,19.7925012 161.657,19.5615 C161.679,19.3304988 161.712,19.116001 161.756,18.918 L163.241,10.503 L160.337,10.503 L160.766,8.16 Z" id="EasyWeChat" fill="#00B9FF" sketch:type="MSShapeGroup"></path>
    </g>
</svg>